<?xml version="1.0" encoding="UTF-8" standalone="no"?>
<svg
   version="1.1"
   id="svg28"
   sodipodi:docname="output-effect.svg"
   inkscape:version="1.1.1 (3bf5ae0, 2021-09-20)"
   xmlns:inkscape="http://www.inkscape.org/namespaces/inkscape"
   xmlns:sodipodi="http://sodipodi.sourceforge.net/DTD/sodipodi-0.dtd"
   xmlns="http://www.w3.org/2000/svg"
   xmlns:svg="http://www.w3.org/2000/svg">
  <defs
     id="defs32">
    <inkscape:path-effect
       effect="roughen"
       id="path-effect849"
       is_visible="true"
       lpeversion="1.1"
       method="size"
       max_segment_size="0.665185"
       segments="2"
       displace_x="10;1"
       displace_y="10;1"
       global_randomize="1;1"
       handles="along"
       shift_nodes="true"
       fixed_displacement="false"
       spray_tool_friendly="false" />
  </defs>
  <sodipodi:namedview
     id="namedview30"
     pagecolor="#ffffff"
     bordercolor="#666666"
     borderopacity="1.0"
     inkscape:pageshadow="2"
     inkscape:pageopacity="0.0"
     inkscape:pagecheckerboard="0"
     showgrid="false"
     inkscape:zoom="4.5466667"
     inkscape:cx="149.89003"
     inkscape:cy="75"
     inkscape:window-width="3440"
     inkscape:window-height="1403"
     inkscape:window-x="0"
     inkscape:window-y="0"
     inkscape:window-maximized="1"
     inkscape:current-layer="svg28" />
  <g
     inkscape:label="Salmon1"
     id="g14">
    <path
       stroke="#ff875f"
       stroke-opacity="0.501961"
       fill="none"
       d="M 14.794889 132.109117 Q 99.185379 27.104020, 154.859680 138.033597"
       stroke-width="0.500000"
       id="path2" />
    <path
       stroke="#ff875f"
       stroke-opacity="0.501961"
       fill="none"
       d="M 150.305212 131.996012 Q 89.760857 31.413181, 26.576003 135.216202"
       stroke-width="0.500000"
       id="path4" />
    <path
       stroke="#ff875f"
       stroke-opacity="0.501961"
       fill="none"
       d="M 16.691315 144.377496 Q 73.886170 33.121447, 146.482343 133.909340"
       stroke-width="0.500000"
       id="path6" />
    <path
       stroke="#ff875f"
       stroke-opacity="0.501961"
       fill="none"
       d="M 17.871873 125.078344 Q 107.225697 25.525680, 154.632246 138.850326"
       stroke-width="0.500000"
       id="path8" />
    <path
       stroke="#ff875f"
       stroke-opacity="0.501961"
       fill="none"
       d="M 168.089608 107.934671 Q 37.447853 64.251693, 38.406671 157.118207"
       stroke-width="0.500000"
       id="path10" />
    <path
       stroke="#ff875f"
       stroke-opacity="0.501961"
       fill="none"
       d="M 35.930457 130.906709 Q 91.649416 38.984786, 144.769145 130.033971"
       stroke-width="0.500000"
       id="path12" />
  </g>
  <g
     inkscape:label="LightSalmon3"
     id="g22">
    <path
       stroke="#d7875f"
       stroke-opacity="0.501961"
       fill="none"
       d="M 28.909555 158.271236 Q 27.046284 59.342371, 221.000241 101.334604"
       stroke-width="0.500000"
       id="path16" />
    <path
       stroke="#d7875f"
       stroke-opacity="0.501961"
       fill="none"
       d="M 31.140179 167.770987 Q 73.940294 12.791406, 208.330915 106.707098"
       stroke-width="0.500000"
       id="path18" />
    <path
       stroke="#d7875f"
       stroke-opacity="0.501961"
       fill="none"
       d="M 168.895762 110.623372 Q 41.302036 20.568937, 19.437109 157.133698"
       stroke-width="0.500000"
       id="path20" />
  </g>
  <g
     inkscape:label="Grey0"
     id="g26"
     inkscape:path-effect="#path-effect849">
    <path
       stroke="#000000"
       stroke-opacity="0.501961"
       fill="none"
       d="m 271,6.107518 c -0.40434,-0.035947 -0.0652,0.064413 -0.46864,0.028746 0.0891,0.078355 -2.69979,-0.081014 -3.35123,-0.1380958 -1.39325,0.034246 -0.75155,0.1468352 -0.75155,0.1468352 -0.85039,0.138174 0.044,0.018779 -0.0548,0.010134 -0.24003,-0.00606 -1.19479,-0.05024 -1.67514,-0.091996 -0.55569,0.00573 -1.45686,0.00134 -1.77988,-0.026614 -0.94184,0.046097 0.54177,0.1423356 0.40992,0.1309462 0.13588,0.1073065 -2.54941,-0.054308 -3.21648,-0.1113947 -1.21126,0.061014 -0.041,-0.00385 -0.041,-0.00385 -0.42038,-0.036316 -1.07003,-0.042918 -1.44848,-0.075133 -0.60388,-0.00298 -0.39357,-0.058395 -0.68512,-0.08311 -0.26646,-0.047465 -1.01482,-0.075827 -1.47032,-0.1141885 -0.46111,-0.028814 -1.04623,0.055656 -1.40463,0.025628 -0.61462,0.092053 -1.21678,0.1157124 -1.50266,0.091861 -0.82625,0.148444 -1.01248,-0.026104 -1.19429,-0.041233 -0.82378,-0.010342 -0.63976,-0.064207 -0.81479,-0.078735 -0.58161,-0.059325 -0.54003,-0.052402 -0.83169,-0.076507 -0.35862,-0.037253 -0.76057,-0.062689 -1.16226,-0.09569 -0.35772,-0.029296 0.18034,-0.059241 -0.22072,-0.091992 0.27066,-0.051568 -1.50341,-0.1811376 -2.21351,-0.2384905 -0.43602,-0.093972 -0.59602,-0.065299 -0.95289,-0.09396 -0.30482,-0.041668 -0.94162,-0.079412 -1.36422,-0.1131231 -0.4465,-0.03957 -0.98741,-0.041253 -1.33845,-0.069096 -0.57285,-0.00813 -0.57878,-0.044457 -0.86696,-0.067206 -0.38278,-0.028822 -0.7572,-0.075829 -1.13742,-0.1056552 -0.37721,-0.045737 -1.13535,-0.1667094 -1.51628,-0.1963985 -0.62563,-0.1266938 -0.13068,0.027141 -0.38384,0.0075 -0.12931,0.027376 -0.89629,0.039061 -1.40017,3.021e-4 -0.30477,0.085077 -0.27178,0.018556 -0.6894,-0.013333 -0.002,0.039534 -1.11594,-0.083839 -1.68069,-0.1265286 -0.36491,-0.026414 -0.93409,-0.1621339 -1.3148,-0.1907135 -0.48688,-0.1282626 -1.52175,-0.011737 -1.83676,-0.035246 -0.97023,0.029631 -0.60593,-0.059851 -0.6854,-0.065773 -0.67061,-0.064658 -0.77463,-0.063659 -0.99797,-0.080232 -0.59027,-0.049873 -0.0137,-0.045906 -0.27604,-0.065278 -0.0296,-0.046935 -0.84263,-0.1300218 -1.38189,-0.1694289 -0.20969,-0.083147 -1.90005,-0.00207 -2.3473,-0.034467 -1.04144,0.060552 -0.0563,-0.016324 -0.0942,-0.019074 -0.35513,-0.037952 -0.51892,-0.081598 -0.89278,-0.1084554 -0.21323,-0.059335 0.0959,-0.067406 -0.34627,-0.098882 0.28877,-0.053242 -1.91922,-0.01662 -2.60924,-0.065035 -0.72431,0.068288 -0.0774,1.297e-4 -0.26739,-0.013149 -0.16317,-0.00578 0.2543,0.1068839 -0.21035,0.074738 0.42334,0.119066 -0.36698,-0.259222 -1.12544,-0.3108238 0.41177,-0.2049271 -0.91237,0.099727 -1.65287,0.050206 0.0169,0.1631657 -0.83517,-0.1382687 -1.39063,-0.1749309 -0.17347,-0.093866 -0.8785,-0.050355 -1.32959,-0.079804 -0.34311,-0.014914 -0.80146,-0.09219 -1.16948,-0.1159974 -0.40098,-0.065956 -0.67304,-0.045011 -1.00926,-0.066578 -0.35787,-0.024518 -0.72502,-0.018601 -1.08259,-0.041327 -0.36362,0.00468 -0.54431,-0.026304 -0.89853,-0.048611 -0.2464,-0.00723 0.0531,-0.074395 -0.35754,-0.099975 0.22941,-0.062993 -1.85855,-0.066751 -2.50246,-0.1061557 -0.73277,0.0032 -0.45564,0.1371391 -0.62203,0.1270038 -0.43859,0.1382482 -0.60294,-0.043809 -0.91824,-0.062847 -0.33339,-0.02728 0.28177,0.056709 -0.0794,0.035124 0.31679,0.059136 -0.83973,-0.1572947 -1.52502,-0.1974396 0.008,-0.1064007 -1.98992,-0.026226 -2.51578,-0.056544 -0.97477,0.033035 -0.007,-4.9e-6 -0.0471,-0.00229 -0.30105,-0.01691 -1.27229,-0.058136 -1.64422,-0.079308 -0.6993,-0.02515 -0.42087,-0.031679 -0.5931,-0.04143 -0.3976,-0.030282 -1.29918,-0.1729788 -1.6199,-0.1909533 -0.78174,-0.143702 0.7929,0.047967 0.66783,0.040985 0.34904,0.023234 -1.00099,-0.033595 -1.69146,-0.071261 -0.088,0.01753 -2.32422,-0.1917264 -2.79601,-0.2170489 -1.37803,-0.140319 1.29108,0.1206383 1.29108,0.1206383 0.63377,0.085358 0.1381,-0.0081 -0.51583,-0.04239 0.62427,0.018613 -1.28047,0.045673 -2.10197,0.00389 -0.0958,0.1078859 -0.10133,-0.1373557 -0.56585,-0.1605635 0.21524,-0.1209109 -1.28617,-0.074436 -1.89826,-0.1042737 -0.37691,-0.028992 0.11918,-0.045481 -0.19931,-0.060803 0.16722,-0.042865 -2.65532,-0.131519 -3.24277,-0.1590781 -1.4764,-0.075153 0,-0.074466 0,-0.074466 -0.17896,-0.082862 -0.11162,0.022586 -0.29032,0.014269 -0.17149,0.019898 -1.06391,-0.041366 -1.48017,-0.06038 -0.4869,-0.014467 -0.17413,-0.1050168 -0.4312,-0.1166208 -0.10475,-0.1016771 -0.93636,0.1396911 -1.3803,0.1200706 -0.36551,0.165552 -1.21947,-0.08384 -1.53809,-0.097707 -0.71788,-0.061687 0.41685,-0.059827 0.28012,-0.065738 0.13051,-0.072145 -1.11336,-0.050431 -1.67084,-0.073856 -0.3257,-0.016317 -0.15034,0.087956 -0.48059,0.074319 0.0109,0.094972 -2.6582,0.043182 -3.15682,0.023139 -1.65788,0.084217 0.44197,-0.1074469 0.44197,-0.1074469 0.19322,-0.117446 -1.18298,0.089496 -1.43121,0.079655 -0.78433,0.1055071 0.0639,-0.04672 -0.0346,-0.050604 -0.15018,-0.055129 -1.0936,-0.033857 -1.50335,-0.04964 -0.50496,-0.010621 0.19895,-0.00467 -0.0336,-0.013505 0.11995,-0.00749 -0.48105,-0.21844293 -1.02335,-0.23837943 0.0849,-0.19662871 -1.02928,-0.0796203 -1.54942,-0.0981077 -0.31078,-0.053127 -2.242,0.0472187 -2.5664,0.0359385 -1.59181,0.0702035 0.0259,-0.0763679 0.0259,-0.0763679 -0.0914,-0.0804451 -0.27601,-0.0628948 -0.39314,-0.066935 -0.34523,-0.0652332 -0.7774,0.001374 -1.08023,-0.008851 -0.43108,0.0133987 -2.01408,0.0597212 -2.27407,0.0511067 -1.49318,0.0772272 0.12191,0.0194878 0.12191,0.0194878 -0.0538,0.013667 -1.46372,-0.0869526 -1.6391,-0.0926897 -1.11253,-0.0753529 0.0585,-0.008242 0.0585,-0.008242 -0.2172,-0.0172608 -0.70089,-0.19910986 -0.97586,-0.20792072 -0.41049,-0.18952742 -0.54555,-0.021379 -0.80551,-0.029541 -0.328,-0.0142955 -1.47693,-0.0312631 -1.7794,-0.0405297 -0.891,-0.0129664 -0.63313,0.027886 -0.6535,0.027263 -0.7049,0.0256926 0.19369,-0.0475585 0.0813,-0.0509638 -0.0297,-0.0542787 -1.84665,-0.0743344 -2.29289,-0.0873484 -0.95108,-0.0474508 -0.30893,-0.0339548 -0.30893,-0.0339548 -0.5029,-0.0396117 -1.12977,-0.10113687 -1.32334,-0.10668528 -0.79979,-0.09153258 0.0516,-0.008482 -0.006,-0.01012747 -0.19386,-0.01546655 -0.86029,-0.01548435 -1.21979,-0.02539432 -0.39698,-0.0022002 0.76543,-0.01668217 0.50837,-0.02359276 0.5487,-0.02224484 -1.80631,-0.04459068 -2.53257,-0.06268309 -0.53232,-0.01068884 0.12267,0.03864053 -0.064,0.0340859 0.0288,0.03649322 0.20148,0.08786368 -0.26398,0.07710747 0.45447,0.09461549 -2.35018,0.10293886 -3.02673,0.0885899 -0.98969,0.13373511 0.16152,-0.0554286 0.16152,-0.0554286 -0.16098,-0.06226872 -1.56639,-0.10012459 -1.88776,-0.10664873 -0.92194,-0.08660235 0.7273,0.07191205 0.7273,0.07191205 0.19727,0.06115207 -0.94725,0.01972642 -1.47417,0.0098271 -0.22194,0.03455634 -0.64179,-0.019656 -0.97375,-0.02557272 -0.27882,-0.01270504 -0.61588,-0.0083676 -0.91765,-0.01347906 -0.30111,-0.0026335 -0.98425,0.10397655 -1.27361,0.09932368 -0.56276,0.11112757 -0.44965,-0.0218851 -0.60802,-0.0243576 -0.38015,-0.0206886 -0.72691,-0.0294934 -0.97389,-0.0331673 -0.44543,-0.0250327 -0.91369,0.0633136 -1.1267,0.0602816 -0.61483,0.0677729 0.42995,-0.06883366 0.30218,-0.07060334 0.16744,-0.07239563 -2.33522,-0.14655448 -2.85042,-0.15287508 -1.30009,-0.13262539 -1.09791,-0.08967439 -1.09791,-0.08967439 -1.09791,-0.0896744 -0.31543,-0.0405996 -0.31543,-0.0405996 -0.31543,-0.0405996 -1.24233,0.0197213 -1.24233,0.0197213 -1.24232,0.0197213 -0.8109,0.07768735 -0.8109,0.07768735 -0.8109,0.07768736 -0.8694,-0.1344456 -0.8694,-0.1344456 -0.86941,-0.13444561 -0.54535,-0.0758807 -0.54535,-0.0758807 -0.54534,-0.0758807 0.17695,-0.0324594 0.17695,-0.0324594 -0.0988,-0.0358425 -1.59739,-0.1266648 -1.87212,-0.12979318 -1.04639,-0.12002598 0.34319,0.0665225 0.34319,0.0665225 0.017,0.0628077 -0.69627,-0.0329622 -1.02103,-0.0363162 -0.3087,-0.0284412 -0.66462,0.0441104 -0.9278,0.0416215 -0.36941,0.0472471 -0.77689,-0.0200085 -1.00874,-0.0220223 -0.48498,-0.0172039 0.63708,0.12615452 0.46458,0.12475612 0.37667,0.12419382 -0.99217,0.0593658 -1.59311,0.0557179 -0.13084,0.0664453 -0.1029,0.0768306 -0.44942,0.075139 0.1197,0.07853828 -1.98168,0.0149557 -2.45155,0.0134279 -1.03724,0.0191833 -0.13171,0.06969599 -0.13171,0.06969599 -0.28756,0.06918926 -0.10504,-0.01911548 -0.26052,-0.01953695 -0.1342,-0.01906808 -0.01,0.17930381 -0.34897,0.17879041 0.17526,0.18019562 -0.33749,0.0281382 -0.82919,0.028249 0.16349,0.0293179 -0.97373,6.4223e-4 -1.45802,0.001597 -0.26875,5.2997e-4 -0.53319,0.005514 -0.80089,0.006304 -0.2653,0.005118 -0.35541,-0.002746 -0.62343,-0.001688 -0.14562,-0.003172 -0.59456,0.0186212 -0.92082,0.0203086 -0.22577,0.017317 0.34961,-0.10008668 0.0647,-0.09830438 0.34728,-0.09960686 -1.18762,0.01272765 -1.75676,0.01755939 -0.29217,0.0070487 -0.49266,0.04799593 -0.74176,0.05035801 -0.25843,0.0461473 -0.67118,0.0204198 -0.93549,0.0232068 -0.35607,0.0175198 -0.45816,-5.8494e-4 -0.67255,0.001862 -0.28022,-0.002336 0.65376,-0.11996874 0.40285,-0.11684671 0.50817,-0.11776833 -1.79544,0.05069604 -2.43806,0.06044552 -0.59296,0.03510852 -0.59838,0.05974258 -0.69036,0.06117421 -0.53417,0.0587976 -0.081,-0.06596047 -0.20075,-0.06403566 -0.1524,-0.06472082 -0.6824,0.05605232 -0.99201,0.0614493 -0.29702,0.0499656 -0.64318,-0.0203697 -0.87838,-0.0160262 -0.37015,-0.02504517 0.23097,-0.0108367 0.0329,-0.007004 0.16275,-0.009253 -1.09121,0.0107611 -1.55307,0.0206686 -0.36215,-0.003413 0.55468,-0.08726346 0.35559,-0.08280991 0.38046,-0.08309091 0.37013,-0.02171582 -0.19811,-0.0074708 0.75384,-0.02901398 -1.15884,-0.02591476 -1.91058,-0.0042961 -0.0137,-0.05463699 -0.79958,0.0074665 -1.16889,0.01877606 -0.28888,-0.0071338 -0.85084,0.0029412 -1.08108,0.01026369 -0.50868,-0.0075318 0.41349,-0.02191874 0.29416,-0.01804995 0.18542,-0.01441389 -2.09167,0.02018663 -2.55538,0.03635207 -1.1592,-0.01061004 0.28187,-0.01494066 0.28187,-0.01494066 0.0801,-0.0079084 -0.12259,0.03663354 -0.32366,0.04385995 -0.0586,0.0346608 -0.93695,0.008454 -1.27425,0.0211937 -0.41785,-0.010222 -0.30592,0.0103778 -0.46377,0.0164765 -0.23688,0.007917 0.0544,0.0278173 -0.19192,0.0376697 0.12226,0.0256082 -0.80478,0.0210232 -1.22798,0.0389635 -0.21144,-0.002605 -0.14409,0.0899993 -0.40048,0.10124477 0.007,0.083956 -0.18093,0.0337895 -0.54245,0.0504009 0.12313,0.0209568 -0.81341,0.038926 -1.23274,0.0592263 -0.219344,0.0117253 -0.317491,-0.0205023 -0.565387,-0.008135 -0.119065,-0.0298497 -1.902331,-0.11953816 -2.199758,-0.10416321 -1.30528,-0.14959264 -0.143729,0.0693611 -0.143729,0.0693611 -0.143728,0.069361 0.02757,0.003593 0.02757,0.003593 -0.20941,0.0158435 0.890682,-0.12455074 0.654683,-0.11200314 0.670024,-0.11229461 -1.337561,0.0701678 -2.023633,0.10969198 -0.202574,0.009406 -0.858394,-0.0309225 -1.10658,-0.0162178 -0.4742,-0.0530726 0.115626,-0.0225647 0.0021,-0.0157506 -0.004,-0.0152565 -0.954151,0.0768003 -1.299108,0.0983133 -0.40422,0.043729 1.008931,0.12614733 0.866183,0.1351899 0.63444,0.15008096 -0.903013,0.0859508 -1.556196,0.13027403 0.04746,0.0259231 -0.374585,0.14791712 -0.739225,0.1735974 0.01334,0.12201102 -1.225624,0.0951903 -1.568392,0.12016102 -0.5844,0.049731 1.420732,0.1522471 1.373455,0.1557071 0.787453,0.1986186 -1.836814,0.1149877 -2.556074,0.1712901 -0.482087,0.014502 0.966906,-0.063457 0.870316,-0.055829 0.547957,-0.03027 -1.394782,0.024349 -2.001104,0.07494 -0.340586,-0.059511 -0.326825,0.039546 -0.493884,0.053696 C 87.542485,1.4522297 87.342319,1.3229916 87.118865,1.3423 86.915017,1.2257652 85.684091,1.256052 85.449478,1.276757 84.485337,1.1496261 84.51038,1.2274623 84.51038,1.2274623 c -0.939098,-0.049295 -0.710251,0.051646 -0.710251,0.051646 -0.710252,0.051646 0.0051,-0.016727 0.0051,-0.016727 -0.01053,-0.015346 0.735013,-0.051073 0.719372,-0.04969 0.292795,-0.011986 -0.963843,0.093791 -1.433117,0.1371149 -0.228192,0.028673 0.02214,0.1653925 -0.186267,0.1850033 0.08321,0.1602038 -0.788787,0.00636 -1.143376,0.040793 -0.266633,-0.042736 -1.007553,0.1143595 -1.197503,0.1331199 -0.629741,0.077517 -0.267102,-0.034176 -0.270245,-0.033866 -0.387641,-0.022268 -1.471382,-0.1544524 -1.597878,-0.1418144 -1.217897,-0.1795653 0.257087,0.01763 0.257087,0.01763 0.148138,0.028515 -0.50352,0.034103 -0.612212,0.04507 -0.400187,0.023839 -0.474889,0.029839 -0.589035,0.041478 -0.373004,0.019632 -0.721211,0.00471 -0.847691,0.017755 -0.521318,-0.015684 0.218905,0.036434 0.165363,0.041983 0.01182,0.057939 -0.582859,0.1616647 -0.894874,0.1949365 -0.172659,0.1193284 -0.66564,0.015288 -0.881757,0.038782 -0.361123,-0.01714 0.328676,0.084108 0.199725,0.098288 0.190458,0.099552 -0.777631,0.090096 -1.170732,0.1348422 -0.19353,0.025905 -1.264914,0.1578301 -1.471425,0.1817637 -0.850384,0.1104309 0.11429,0.011835 0.11429,0.011835 -0.04129,0.029866 0.09261,0.159914 -0.06238,0.1781186 0.07469,0.1623828 -1.071234,0.106961 -1.397413,0.1463414 -0.476183,0.036735 0.01411,5.556e-4 -0.04701,0.00797 -0.107424,0.015362 -0.979451,-0.026315 -1.221899,0.00371 -0.53105,-0.080937 -0.466812,0.063169 -0.505496,0.067976 -0.455409,0.061776 -1.490044,-0.1436187 -1.555951,-0.1353823 -1.358056,-0.1600437 -0.07137,0.010018 -0.07137,0.010018 -0.07137,0.010018 -0.358643,0.0043 -0.358643,0.0043 -0.360179,0.00449 1.299249,0.014303 1.297711,0.014495 0.677017,0.092074 -2.12749,0.1753442 -2.742138,0.2564418 -0.882219,0.017563 -0.89514,-0.063471 -0.89514,-0.063471 -0.89514,-0.063471 -0.310715,-0.029502 -0.310715,-0.029502 -0.310715,-0.029502 0.0211,-0.034347 0.0211,-0.034347 -0.06692,-0.022734 -1.494758,-0.033041 -1.582535,-0.021365 -1.31884,-0.056298 0.02478,0.021822 0.02478,0.021822 0.02478,0.021822 -0.450767,-0.037758 -0.450767,-0.037758 -0.450768,-0.037758 0.148177,-8.222e-4 0.148177,-8.222e-4 -0.07988,0.029512 -0.648256,0.041848 -0.874558,0.072603 -0.315804,-0.00234 -0.489456,0.028627 -0.611724,0.045439 -0.348559,0.00955 0.141016,0.070207 0.03698,0.084656 0.05174,0.082822 -0.609349,0.1492624 -0.904184,0.1913776 -0.189915,0.091118 -1.107816,0.047408 -1.281597,0.072642 -0.758631,-0.00268 -0.405797,0.082282 -0.405797,0.082282 -0.405797,0.082282 0.549206,-0.041462 0.549206,-0.041462 0.208934,0.00795 -0.05408,0.2018723 -0.390096,0.252257 0.243603,0.1596541 0.05352,0.2228668 -0.321947,0.28118 0.371534,0.1765373 -0.113652,0.1977115 -0.547546,0.2678201 0.339102,0.1287004 -1.159097,0.1254211 -1.578162,0.1957186 -0.386371,-2.678e-4 1.254427,0.021846 1.179749,0.034458 0.766881,0.10431 -1.747968,0.3357485 -2.37153,0.4470122 -0.491182,0.1206251 0.235241,-0.044256 0.224455,-0.042329 -0.0027,-0.00176 -0.559081,0.031646 -0.816183,0.078613 -0.203521,-0.03172 -0.493523,0.1274971 -0.654799,0.157385 -0.281442,0.088836 -0.331462,0.089746 -0.442897,0.1106026 -0.240086,0.072953 0.230408,0.03779 0.09887,0.062697 0.163675,0.050861 -0.793226,0.1435542 -1.120015,0.2072408 -0.257463,0.041887 -0.903329,0.057587 -1.026556,0.081865 -0.65601,0.00926 0.790441,0.026623 0.790441,0.026623 0.414377,0.1007151 -0.855206,0.1996064 -1.225959,0.2750866 -0.233641,0.076769 -0.632219,0.1363399 -0.759486,0.1625422 -0.414365,0.091928 0.592653,-0.00201 0.555077,0.00576 0.287277,0.061114 -0.117303,0.1362211 -0.492361,0.2162805 0.270826,0.057306 -0.592054,0.149027 -0.957251,0.2294893 -0.06267,0.036205 -0.181734,0.088495 -0.388773,0.1349387 -7.61e-4,0.04915 -1.291027,-0.025426 -1.524517,0.028022 -0.820919,-0.1314175 1.23231,-0.1120684 1.23231,-0.1120684 0.763382,-0.00473 -0.604292,0.1749214 -1.06514,0.2848926 0.06422,0.022233 -0.972015,0.1329479 -1.234734,0.1971406 -0.458675,0.00979 0.01259,0.00722 -0.0034,0.011123 -0.12526,0.040955 0.281694,0.053851 0.113019,0.09577 0.267069,0.05846 -0.486827,0.2223493 -0.835852,0.3118798 -1.47e-4,0.1017492 0.594289,-0.031004 0.377725,0.025633 0.541822,-0.015641 -1.295911,0.2742809 -1.776237,0.4053332 -0.372179,0.030539 -0.0221,0.020911 -0.07085,0.034271 -0.09863,0.041969 -0.292139,-0.044833 -0.465201,0.00333 -0.123157,-0.090745 0.05222,-0.023662 -0.125402,0.026588 0.122787,-0.042393 -0.563426,0.1367441 -0.846992,0.219108 -0.144042,0.018176 -0.02182,0.057761 -0.173031,0.1023068 0.04584,0.038772 0.610811,0.1731365 0.376744,0.2436066 0.607874,0.1763128 -1.587497,0.4081869 -2.054893,0.5547023 -0.642796,0.1208785 -0.323796,-0.1616948 -0.323796,-0.1616948 -0.323796,-0.1616947 0.04476,0.023446 0.04476,0.023446 -0.105283,0.07048 -0.221663,0.093452 -0.370876,0.1408797 -0.087,0.051633 -0.193631,0.1294914 -0.357628,0.1824181 -0.04306,0.082106 -2.04899,0.2426506 -2.226751,0.3009634 -1.691709,0.1268738 0.06452,-0.1176475 0.06452,-0.1176475 0.06452,-0.1176475 -0.529199,0.04539 -0.529199,0.04539 -0.529198,0.04539 1.283514,-0.040376 1.283514,-0.040376 0.994599,0.0544 -2.19398,0.076047 -2.479253,0.1723054 -1.617966,-0.1142473 0.331948,-0.049684 0.331948,-0.049684 0.331948,-0.049684 0.279731,0.012011 0.279731,0.012011 0.160245,0.052329 -0.307438,0.096844 -0.426173,0.1374381 -0.180754,0.054332 -0.221466,0.076685 -0.332706,0.1151896 -0.132036,0.046444 -0.239101,0.088751 -0.372184,0.1355074 -0.112982,0.045486 -0.646929,0.1399407 -0.787344,0.1900565 -0.382779,0.046847 -0.04691,0.013832 -0.06522,0.020381 -0.138024,0.046442 -0.239065,0.087293 -0.365866,0.1333142 -0.119229,0.04481 -0.392934,0.08795 -0.527053,0.137389 -0.216654,0.02412 0.429256,0.05205 0.3362,0.08673 0.30313,0.09963 -1.737294,0.278115 -2.044787,0.396829 -1.11397,0.04374 0.4034,0.01032 0.4034,0.01032 0.365286,0.02504 0.09283,0.06991 0.05482,0.08465 -0.0014,0.106551 -0.322934,0.136042 -0.491454,0.202725 -0.111821,0.05451 -0.871381,-0.05485 -0.999029,-0.0036 -0.61445,-0.156904 0.128037,0.0051 0.128037,0.0051 0.0052,0.05449 -0.133699,0.08445 -0.255491,0.134168 -0.04493,0.0494 -0.46185,0.202596 -0.616539,0.26704 -0.218574,0.103208 0.507403,-0.07441 0.439014,-0.04566 0.321885,0.004 0.520287,0.339 0.204532,0.477285 0.723508,0.258507 -0.328666,0.490421 -0.756922,0.687389 0.29136,0.219729 -0.918991,0.2425 -1.168265,0.360164 -0.415601,0.0095 0.290868,-0.07531 0.290868,-0.07531 0.08849,0.02022 0.809912,0.233816 0.609775,0.330396 0.779569,0.251662 -0.315395,0.228811 -0.742533,0.443009 0.268201,-0.05147 -0.765149,0.2696 -1.043911,0.412915 -0.261072,0.0158 -0.574354,0.002 -0.631263,0.03137 -0.460358,-0.05673 -0.05195,0.02137 -0.05195,0.02137 -0.138252,0.06599 -0.336533,0.133103 -0.422473,0.177944 -0.222054,0.074 -0.136714,0.132758 -0.19448,0.163093 -0.111568,0.119846 -0.478882,0.08763 -0.569091,0.135467 -0.326779,0.0077 -0.796488,-0.08101 -0.825421,-0.06561 -0.738544,-0.111764 -0.199435,0.03188 -0.199435,0.03188 -0.199435,0.03188 0.237399,-0.01473 0.237399,-0.01473 0.09287,0.06218 -0.354174,0.147469 -0.497049,0.225035 -0.152885,0.04052 0.903863,0.233602 0.817543,0.281047 0.719736,0.335686 0.323187,0.338815 -0.02714,0.539083 0.669848,0.152495 0.186498,0.619727 -0.174146,0.832605 0.622462,0.372685 -0.743415,0.34043 -1.034778,0.515088 -0.217874,0.02951 -0.0043,0.179369 -0.06291,0.214657 0.0058,0.173541 0.939942,0.0034 0.832766,0.06825 0.762925,0.111087 -0.918188,0.478447 -1.312443,0.719555 -0.195071,0.04029 -0.459896,0.120265 -0.522012,0.158346 -0.342456,0.04841 0.332006,-0.04479 0.325228,-0.04064 0.162115,0.0594 -0.329629,0.205404 -0.513038,0.318793 -0.06673,0.04426 -0.701587,0.0645 -0.805564,0.129102 -0.493553,-0.06427 0.204391,0.02046 0.204391,0.02046 0.08441,0.09501 -0.482314,0.130536 -0.601988,0.205508 -0.278044,0.0035 -0.130342,0.04251 -0.165854,0.06483 -0.134797,0.04541 0.382104,0.235872 0.306785,0.283515 0.340109,0.262914 -0.743747,0.270552 -0.936064,0.39349 -0.358707,0.0264 1.214331,0.0041 1.21368,0.0045 0.843658,0.241092 -1.004575,0.518725 -1.37875,0.759603 -0.279363,0.05481 0.447297,-0.02463 0.426809,-0.01143 0.280035,0.08315 -0.292392,0.191699 -0.501239,0.32687 -0.0018,0.0046 -1.219104,0.07076 -1.345658,0.152981 -0.966272,-0.09302 0.909047,0.06878 0.909047,0.06878 0.749352,0.172535 0.0382,0.138858 -0.121513,0.243371 0.181242,0.0464 -0.284016,0.235219 -0.460945,0.351727 -0.02928,0.06862 0.368264,0.109018 0.269703,0.174162 0.348825,0.122238 -1.126048,0.23654 -1.344582,0.381173 -0.691976,-0.05032 0.562873,0.0019 0.562873,0.0019 0.421685,0.09532 0.26893,0.289264 0.127362,0.383446 0.357634,0.231014 -0.920151,0.27539 -1.116107,0.405417 -0.531117,0.01686 -0.0052,-7.51e-4 -0.0052,-7.51e-4 -0.04067,0.02277 -1.248836,0.138448 -1.284277,0.162004 -1.177936,0.09138 -0.02344,-0.01115 -0.02344,-0.01115 -0.02344,-0.01115 0.121217,-0.01641 0.121217,-0.01641 0.121217,-0.01641 -0.237585,0.06366 -0.237585,0.06366 -0.237585,0.06366 -0.73183,0.08254 -0.73183,0.08254 -0.731831,0.08254 1.173007,-0.05633 1.173007,-0.05633 0.930544,0.104823 -0.812802,0.28103 -1.049271,0.442795 -0.338632,-0.03617 -0.890948,-0.195625 -0.898822,-0.190231 -0.875186,-0.206412 0.193015,0.04941 0.193015,0.04941 0.172218,0.06366 0.385993,0.07002 0.365297,0.08428 0.268521,0.151089 -1.640736,0.197141 -1.795162,0.307471 -1.324994,-0.02238 0.53402,0.132781 0.53402,0.132781 0.534021,0.132781 0.443415,-0.01408 0.443415,-0.01408 0.319367,0.07455 -0.202366,0.326607 -0.322733,0.415522 -0.01149,0.190111 0.306528,0.0283 0.251915,0.06919 0.253358,0.06894 0.640079,0.231272 0.481501,0.353921 0.69448,0.195283 -0.783106,0.436599 -1.051012,0.646603 -0.259013,0.03061 -0.934386,0.128048 -0.950193,0.140463 -0.902733,0.103224 -0.538336,0.03602 -0.538336,0.03602 -0.538337,0.03603 -0.710518,0.08035 -0.710518,0.08035 -0.710517,0.08035 -1.20098,0.112732 -1.20098,0.112732 -1.20098,0.112732 0.01375,0.0044 0.01375,0.0044 0.01375,0.0044 0.607204,0.0068 0.607204,0.0068 0.607203,0.0068 0.0052,0.0019 0.0052,0.0019 0.0052,0.0019 0.528399,-0.05852 0.528399,-0.05852 0.489138,-0.02768 -0.643093,0.202414 -0.681391,0.233166 -0.565057,0.140786 -0.695225,-0.02615 -0.695225,-0.02615 -0.695226,-0.02615 0.04252,-0.0026 0.04252,-0.0026 0.04252,-0.0026 -1.035486,0.131502 -1.035486,0.131502 -1.0354855,0.131502 0.06676,0.06722 0.06676,0.06722 0.06676,0.06722 -0.7435796,0.0096 -0.7435796,0.0096 -0.7435792,0.0096 -0.1014492,-0.0105 -0.1014492,-0.0105 -0.1014493,-0.0105 0.4755438,0.0306 0.4755438,0.0306 0.475543,0.0306 -0.4364614,0.08808 -0.4364614,0.08808 -0.4364608,0.08808 -0.078431,0.02425 -0.078431,0.02425 -0.078431,0.02425 -0.3050138,0.02896 -0.3050138,0.02896 -0.3050137,0.02896 -0.012468,0.0021 -0.012468,0.0021 -0.012468,0.0021 -0.1956521,0.04049 -0.1956521,0.04049 -0.1974572,0.04194 -0.012133,0.0012 -0.013933,0.0026 -1.4603479,1.166862 -1.2594311,2.195263 -0.8229128,3.21534 0.00143,0.104352 -0.4988202,-0.07801 -0.478411,-0.03236 -0.4294861,0.07431 -1.2852189,0.69565 -1.11745,0.963281 -1.2841423,0.6255 1.5860783,0.828182 2.1723468,1.253979 0.4595587,0.01066 0.1932544,-0.03042 0.1932544,-0.03042 0.1932545,-0.03042 0.4525788,0.08978 0.4525788,0.08978 0.4525782,0.08978 0.2572463,0.005 0.2572463,0.005 0.2572459,0.005 -0.047102,-0.005 -0.047102,-0.005 -0.047101,-0.005 -1.2567664,-0.172846 -1.2567664,-0.172846 -1.210104,-0.138956 -0.7168786,0.190225 -0.6755978,0.227294 -0.6210601,0.28822 0.457335,0.365305 0.7452036,0.525699 -0.084268,0.09718 0.2628041,0.08666 0.3537223,0.126438 0.056586,-2.74e-4 -0.095109,0.0026 -0.095109,0.0026 -0.076181,0.01089 0.4922548,0.05623 0.5111021,0.06464 0.4538042,0.03969 -1.1385067,0.05158 -1.1385067,0.05158 -1.0745969,0.08009 0.6873018,-0.02747 0.7736121,-7.8e-4 -0.018619,-0.0079 -0.014762,0.102013 -0.014304,0.102176 -0.00763,0.104572 0.9868225,-0.148841 0.9871185,-0.148759 5e-6,2e-6 -2.0039411,-0.06319 -2.0039541,-0.06314"
       stroke-width="0.5"
       id="path24"
       inkscape:original-d="M 271,6.107518 Q 22.32893,-16 9.107947,32.438802" />
  </g>
</svg>
